<svg width="127" height="25" viewBox="0 0 127 25" fill="none" xmlns="http://www.w3.org/2000/svg" title="together.eu logo">
    <path
        d="M4.31502 2.29028V6.01853H7.67114V7.77613H4.31502V14.7533C4.31502 16.3511 4.79446 17.2565 6.07299 17.2565C6.65898 17.2565 7.13842 17.2033 7.40478 17.0967L7.51133 18.8543C7.03188 19.0141 6.33935 19.1739 5.43373 19.1739C4.36829 19.1739 3.46267 18.8011 2.87668 18.2152C2.18415 17.5228 1.97106 16.3511 1.97106 14.8598V7.77613H0V6.01853H2.02433V2.92941L4.31502 2.29028Z"
        fill="#2B5C93"></path>
    <path
        d="M21.7885 12.3566C21.7885 17.15 18.4857 19.2272 15.3426 19.2272C11.8267 19.2272 9.16309 16.6707 9.16309 12.5696C9.16309 8.25549 11.9865 5.69897 15.5557 5.69897C19.2847 5.69897 21.7885 8.41527 21.7885 12.3566ZM11.5603 12.4631C11.5603 15.2859 13.1585 17.4163 15.5024 17.4163C17.7398 17.4163 19.4445 15.2859 19.4445 12.4098C19.4445 10.2261 18.3258 7.45658 15.5557 7.45658C12.7856 7.45658 11.5603 10.0131 11.5603 12.4631Z"
        fill="#2B5C93"></path>
    <path
        d="M35.8525 6.01846C35.7992 6.97715 35.7459 7.98911 35.7459 9.58693V17.0967C35.7459 20.026 35.1599 21.8901 33.8814 23.0086C32.6029 24.1803 30.7916 24.5532 29.1935 24.5532C27.6486 24.5532 25.9439 24.1803 24.8785 23.488L25.4645 21.7304C26.3168 22.263 27.6486 22.7423 29.2468 22.7423C31.644 22.7423 33.402 21.5173 33.402 18.2152V16.7771H33.3487C32.6029 17.9489 31.2178 18.9608 29.2468 18.9608C26.0505 18.9608 23.7598 16.2445 23.7598 12.676C23.7598 8.30867 26.6364 5.80542 29.5664 5.80542C31.8038 5.80542 33.0291 6.97715 33.6151 8.04237H33.6683L33.7749 6.07172H35.8525V6.01846ZM33.4552 11.0782C33.4552 10.6521 33.4552 10.3326 33.3487 10.013C32.9225 8.6815 31.7505 7.50976 30.0458 7.50976C27.8084 7.50976 26.2103 9.42714 26.2103 12.4097C26.2103 14.913 27.4888 17.0434 30.0458 17.0434C31.4842 17.0434 32.816 16.138 33.2954 14.6467C33.402 14.2739 33.5085 13.7945 33.5085 13.3684V11.0782H33.4552Z"
        fill="#2B5C93"></path>
    <path
        d="M40.9132 12.8889C40.9665 16.0845 42.9908 17.3628 45.3348 17.3628C47.0395 17.3628 48.0516 17.0965 48.904 16.7236L49.3301 18.428C48.4778 18.8008 47.0927 19.2269 45.0151 19.2269C41.0197 19.2269 38.6758 16.6171 38.6758 12.7291C38.6758 8.84107 40.9665 5.75195 44.7488 5.75195C48.9572 5.75195 50.0759 9.4802 50.0759 11.8237C50.0759 12.303 50.0227 12.6758 50.0227 12.8889H40.9132ZM47.7853 11.1845C47.8385 9.69324 47.1993 7.34977 44.5357 7.34977C42.1384 7.34977 41.1263 9.53346 40.9132 11.1845H47.7853Z"
        fill="#2B5C93"></path>
    <path
        d="M55.7755 2.29028V6.01853H59.1316V7.77613H55.7755V14.7533C55.7755 16.3511 56.255 17.2565 57.5335 17.2565C58.1195 17.2565 58.5989 17.2033 58.8653 17.0967L58.9718 18.8543C58.4924 19.0141 57.7998 19.1739 56.8942 19.1739C55.8288 19.1739 54.9232 18.8011 54.3372 18.2152C53.6446 17.5228 53.4316 16.3511 53.4316 14.8598V7.77613H51.4072V6.01853H53.4316V2.92941L55.7755 2.29028Z"
        fill="#2B5C93"></path>
    <path
        d="M61.7949 0H64.1389V8.04236H64.1922C64.5651 7.40323 65.1511 6.81736 65.8969 6.39128C66.5894 5.96519 67.4417 5.69889 68.2941 5.69889C70.0521 5.69889 72.8222 6.7641 72.8222 11.238V18.9075H70.4782V11.5043C70.4782 9.42713 69.7324 7.66953 67.495 7.66953C65.9501 7.66953 64.7781 8.73475 64.352 10.013C64.2454 10.3326 64.1922 10.6521 64.1922 11.1315V18.9075H61.8482V0H61.7949Z"
        fill="#2B5C93"></path>
    <path
        d="M77.8839 12.8889C77.9372 16.0845 79.9615 17.3628 82.3055 17.3628C84.0102 17.3628 85.0223 17.0965 85.8747 16.7236L86.3008 18.428C85.4485 18.8008 84.0634 19.2269 81.9858 19.2269C77.9904 19.2269 75.6465 16.6171 75.6465 12.7291C75.6465 8.84107 77.9372 5.75195 81.7195 5.75195C85.9279 5.75195 87.0466 9.4802 87.0466 11.8237C87.0466 12.303 86.9934 12.6758 86.9401 12.8889H77.8839ZM84.756 11.1845C84.756 9.69324 84.17 7.34977 81.5064 7.34977C79.1624 7.34977 78.097 9.53346 77.8839 11.1845H84.756Z"
        fill="#2B5C93"></path>
    <path
        d="M89.922 10.0128C89.922 8.52151 89.922 7.18999 89.8154 6.01826H91.8398L91.9463 8.57477H92.0528C92.6388 6.87043 94.0772 5.75195 95.622 5.75195C95.8884 5.75195 96.0482 5.80521 96.2613 5.85847V8.09542C95.995 8.04216 95.7819 7.9889 95.4622 7.9889C93.8108 7.9889 92.6388 9.26716 92.3192 11.0248C92.2659 11.3443 92.2127 11.7171 92.2127 12.1432V18.9073H89.8687V10.0128H89.922Z"
        fill="#2B5C93"></path>
    <path d="M96.6885 17.5227C96.6885 16.564 97.3277 15.8716 98.2866 15.8716C99.2455 15.8716 99.8848 16.564 99.8848 17.5227C99.8848 18.4814 99.2455 19.227 98.2866 19.227C97.3277 19.1737 96.6885 18.4814 96.6885 17.5227Z" fill="#2B5C93"></path>
    <path
        d="M104.04 12.8892C104.093 16.0848 106.118 17.3631 108.462 17.3631C110.166 17.3631 111.179 17.0968 112.031 16.7239L112.457 18.375C111.605 18.7478 110.22 19.1739 108.142 19.1739C104.147 19.1739 101.803 16.5641 101.803 12.6761C101.803 8.78809 104.093 5.69897 107.876 5.69897C112.084 5.69897 113.203 9.42722 113.203 11.7707C113.203 12.25 113.15 12.6229 113.096 12.8359H104.04V12.8892ZM110.912 11.1848C110.912 9.69352 110.326 7.35005 107.663 7.35005C105.319 7.35005 104.253 9.53374 104.04 11.1848H110.912Z"
        fill="#2B5C93"></path>
    <path
        d="M126.893 15.3924C126.893 16.7239 126.947 17.8957 127 18.9076H124.922L124.816 16.7772H124.709C124.123 17.8424 122.738 19.1739 120.447 19.1739C118.423 19.1739 115.973 18.0555 115.973 13.5283V6.01855H118.317V13.1555C118.317 15.6055 119.062 17.2566 121.193 17.2566C122.791 17.2566 123.857 16.1913 124.283 15.1261C124.39 14.8066 124.496 14.3272 124.496 13.9544V6.01855H126.84V15.3924H126.893Z"
        fill="#2B5C93"></path>
</svg>
